<svg id="visual" viewBox="0 0 900 600" width="900" height="600" xmlns="http://www.w3.org/2000/svg" xmlns:xlink="http://www.w3.org/1999/xlink" version="1.1"><rect x="0" y="0" width="900" height="600" fill="#001220"></rect><g fill="none" stroke="#A7233A" stroke-width="2"><circle r="70" cx="631" cy="324"></circle><circle r="43" cx="227" cy="21"></circle><circle r="44" cx="243" cy="346"></circle><circle r="42" cx="243" cy="555"></circle><circle r="43" cx="766" cy="487"></circle><circle r="47" cx="848" cy="321"></circle><circle r="68" cx="107" cy="183"></circle><circle r="56" cx="6" cy="475"></circle><circle r="68" cx="858" cy="147"></circle><circle r="62" cx="617" cy="175"></circle><circle r="43" cx="520" cy="428"></circle><circle r="64" cx="432" cy="67"></circle><circle r="47" cx="702" cy="58"></circle><circle r="66" cx="402" cy="237"></circle><circle r="64" cx="634" cy="592"></circle><circle r="62" cx="383" cy="470"></circle><circle r="61" cx="894" cy="558"></circle><circle r="42" cx="34" cy="58"></circle><circle r="47" cx="471" cy="596"></circle></g></svg>