<svg id="visual" viewBox="0 0 900 600" width="900" height="600" xmlns="http://www.w3.org/2000/svg" xmlns:xlink="http://www.w3.org/1999/xlink" version="1.1"><rect x="0" y="0" width="900" height="600" fill="#F7CACA"></rect><path d="M0 355L18.8 348.8C37.7 342.7 75.3 330.3 112.8 334.5C150.3 338.7 187.7 359.3 225.2 370.7C262.7 382 300.3 384 337.8 376.5C375.3 369 412.7 352 450.2 342.5C487.7 333 525.3 331 562.8 333C600.3 335 637.7 341 675.2 339C712.7 337 750.3 327 787.8 326.7C825.3 326.3 862.7 335.7 881.3 340.3L900 345L900 601L881.3 601C862.7 601 825.3 601 787.8 601C750.3 601 712.7 601 675.2 601C637.7 601 600.3 601 562.8 601C525.3 601 487.7 601 450.2 601C412.7 601 375.3 601 337.8 601C300.3 601 262.7 601 225.2 601C187.7 601 150.3 601 112.8 601C75.3 601 37.7 601 18.8 601L0 601Z" fill="#fa7268"></path><path d="M0 339L18.8 347.2C37.7 355.3 75.3 371.7 112.8 379.8C150.3 388 187.7 388 225.2 378.5C262.7 369 300.3 350 337.8 349.2C375.3 348.3 412.7 365.7 450.2 365.5C487.7 365.3 525.3 347.7 562.8 346C600.3 344.3 637.7 358.7 675.2 358.7C712.7 358.7 750.3 344.3 787.8 351C825.3 357.7 862.7 385.3 881.3 399.2L900 413L900 601L881.3 601C862.7 601 825.3 601 787.8 601C750.3 601 712.7 601 675.2 601C637.7 601 600.3 601 562.8 601C525.3 601 487.7 601 450.2 601C412.7 601 375.3 601 337.8 601C300.3 601 262.7 601 225.2 601C187.7 601 150.3 601 112.8 601C75.3 601 37.7 601 18.8 601L0 601Z" fill="#f56967"></path><path d="M0 379L18.8 378.5C37.7 378 75.3 377 112.8 384.8C150.3 392.7 187.7 409.3 225.2 415.7C262.7 422 300.3 418 337.8 409.7C375.3 401.3 412.7 388.7 450.2 380.2C487.7 371.7 525.3 367.3 562.8 377.7C600.3 388 637.7 413 675.2 425.7C712.7 438.3 750.3 438.7 787.8 428C825.3 417.3 862.7 395.7 881.3 384.8L900 374L900 601L881.3 601C862.7 601 825.3 601 787.8 601C750.3 601 712.7 601 675.2 601C637.7 601 600.3 601 562.8 601C525.3 601 487.7 601 450.2 601C412.7 601 375.3 601 337.8 601C300.3 601 262.7 601 225.2 601C187.7 601 150.3 601 112.8 601C75.3 601 37.7 601 18.8 601L0 601Z" fill="#ef5f67"></path><path d="M0 394L18.8 402.8C37.7 411.7 75.3 429.3 112.8 431.7C150.3 434 187.7 421 225.2 415.7C262.7 410.3 300.3 412.7 337.8 418.5C375.3 424.3 412.7 433.7 450.2 436.8C487.7 440 525.3 437 562.8 434.8C600.3 432.7 637.7 431.3 675.2 426.2C712.7 421 750.3 412 787.8 409C825.3 406 862.7 409 881.3 410.5L900 412L900 601L881.3 601C862.7 601 825.3 601 787.8 601C750.3 601 712.7 601 675.2 601C637.7 601 600.3 601 562.8 601C525.3 601 487.7 601 450.2 601C412.7 601 375.3 601 337.8 601C300.3 601 262.7 601 225.2 601C187.7 601 150.3 601 112.8 601C75.3 601 37.7 601 18.8 601L0 601Z" fill="#e95667"></path><path d="M0 471L18.8 464.8C37.7 458.7 75.3 446.3 112.8 441.2C150.3 436 187.7 438 225.2 437.7C262.7 437.3 300.3 434.7 337.8 432.3C375.3 430 412.7 428 450.2 435.7C487.7 443.3 525.3 460.7 562.8 468.8C600.3 477 637.7 476 675.2 466.7C712.7 457.3 750.3 439.7 787.8 438.7C825.3 437.7 862.7 453.3 881.3 461.2L900 469L900 601L881.3 601C862.7 601 825.3 601 787.8 601C750.3 601 712.7 601 675.2 601C637.7 601 600.3 601 562.8 601C525.3 601 487.7 601 450.2 601C412.7 601 375.3 601 337.8 601C300.3 601 262.7 601 225.2 601C187.7 601 150.3 601 112.8 601C75.3 601 37.7 601 18.8 601L0 601Z" fill="#e34c67"></path><path d="M0 506L18.8 500.5C37.7 495 75.3 484 112.8 482.2C150.3 480.3 187.7 487.7 225.2 489.8C262.7 492 300.3 489 337.8 491.7C375.3 494.3 412.7 502.7 450.2 506.3C487.7 510 525.3 509 562.8 507.2C600.3 505.3 637.7 502.7 675.2 494.8C712.7 487 750.3 474 787.8 475C825.3 476 862.7 491 881.3 498.5L900 506L900 601L881.3 601C862.7 601 825.3 601 787.8 601C750.3 601 712.7 601 675.2 601C637.7 601 600.3 601 562.8 601C525.3 601 487.7 601 450.2 601C412.7 601 375.3 601 337.8 601C300.3 601 262.7 601 225.2 601C187.7 601 150.3 601 112.8 601C75.3 601 37.7 601 18.8 601L0 601Z" fill="#dc4267"></path><path d="M0 521L18.8 520.7C37.7 520.3 75.3 519.7 112.8 518.3C150.3 517 187.7 515 225.2 515.8C262.7 516.7 300.3 520.3 337.8 517.8C375.3 515.3 412.7 506.7 450.2 501.2C487.7 495.7 525.3 493.3 562.8 492.2C600.3 491 637.7 491 675.2 497C712.7 503 750.3 515 787.8 517.8C825.3 520.7 862.7 514.3 881.3 511.2L900 508L900 601L881.3 601C862.7 601 825.3 601 787.8 601C750.3 601 712.7 601 675.2 601C637.7 601 600.3 601 562.8 601C525.3 601 487.7 601 450.2 601C412.7 601 375.3 601 337.8 601C300.3 601 262.7 601 225.2 601C187.7 601 150.3 601 112.8 601C75.3 601 37.7 601 18.8 601L0 601Z" fill="#d53867"></path><path d="M0 529L18.8 529.5C37.7 530 75.3 531 112.8 531.2C150.3 531.3 187.7 530.7 225.2 530.8C262.7 531 300.3 532 337.8 532.7C375.3 533.3 412.7 533.7 450.2 533.8C487.7 534 525.3 534 562.8 533.5C600.3 533 637.7 532 675.2 531.7C712.7 531.3 750.3 531.7 787.8 529.8C825.3 528 862.7 524 881.3 522L900 520L900 601L881.3 601C862.7 601 825.3 601 787.8 601C750.3 601 712.7 601 675.2 601C637.7 601 600.3 601 562.8 601C525.3 601 487.7 601 450.2 601C412.7 601 375.3 601 337.8 601C300.3 601 262.7 601 225.2 601C187.7 601 150.3 601 112.8 601C75.3 601 37.7 601 18.8 601L0 601Z" fill="#ce2e68"></path><path d="M0 558L18.8 561.7C37.7 565.3 75.3 572.7 112.8 571.2C150.3 569.7 187.7 559.3 225.2 556.5C262.7 553.7 300.3 558.3 337.8 563C375.3 567.7 412.7 572.3 450.2 570.3C487.7 568.3 525.3 559.7 562.8 554.5C600.3 549.3 637.7 547.7 675.2 551C712.7 554.3 750.3 562.7 787.8 566.3C825.3 570 862.7 569 881.3 568.5L900 568L900 601L881.3 601C862.7 601 825.3 601 787.8 601C750.3 601 712.7 601 675.2 601C637.7 601 600.3 601 562.8 601C525.3 601 487.7 601 450.2 601C412.7 601 375.3 601 337.8 601C300.3 601 262.7 601 225.2 601C187.7 601 150.3 601 112.8 601C75.3 601 37.7 601 18.8 601L0 601Z" fill="#c62368"></path></svg>