<svg id="visual" viewBox="0 0 900 600" width="900" height="600" xmlns="http://www.w3.org/2000/svg" xmlns:xlink="http://www.w3.org/1999/xlink" version="1.1"><path d="M0 61L13.7 66C27.3 71 54.7 81 82 85C109.3 89 136.7 87 163.8 80C191 73 218 61 245.2 63C272.3 65 299.7 81 327 90C354.3 99 381.7 101 409 101C436.3 101 463.7 99 491 93C518.3 87 545.7 77 573 78C600.3 79 627.7 91 654.8 89C682 87 709 71 736.2 71C763.3 71 790.7 87 818 92C845.3 97 872.7 91 886.3 88L900 85L900 0L886.3 0C872.7 0 845.3 0 818 0C790.7 0 763.3 0 736.2 0C709 0 682 0 654.8 0C627.7 0 600.3 0 573 0C545.7 0 518.3 0 491 0C463.7 0 436.3 0 409 0C381.7 0 354.3 0 327 0C299.7 0 272.3 0 245.2 0C218 0 191 0 163.8 0C136.7 0 109.3 0 82 0C54.7 0 27.3 0 13.7 0L0 0Z" fill="#8ba9d7"></path><path d="M0 127L13.7 143C27.3 159 54.7 191 82 197C109.3 203 136.7 183 163.8 182C191 181 218 199 245.2 202C272.3 205 299.7 193 327 197C354.3 201 381.7 221 409 225C436.3 229 463.7 217 491 206C518.3 195 545.7 185 573 179C600.3 173 627.7 171 654.8 174C682 177 709 185 736.2 189C763.3 193 790.7 193 818 199C845.3 205 872.7 217 886.3 223L900 229L900 83L886.3 86C872.7 89 845.3 95 818 90C790.7 85 763.3 69 736.2 69C709 69 682 85 654.8 87C627.7 89 600.3 77 573 76C545.7 75 518.3 85 491 91C463.7 97 436.3 99 409 99C381.7 99 354.3 97 327 88C299.7 79 272.3 63 245.2 61C218 59 191 71 163.8 78C136.7 85 109.3 87 82 83C54.7 79 27.3 69 13.7 64L0 59Z" fill="#7296ce"></path><path d="M0 217L13.7 233C27.3 249 54.7 281 82 284C109.3 287 136.7 261 163.8 253C191 245 218 255 245.2 263C272.3 271 299.7 277 327 283C354.3 289 381.7 295 409 300C436.3 305 463.7 309 491 307C518.3 305 545.7 297 573 292C600.3 287 627.7 285 654.8 284C682 283 709 283 736.2 275C763.3 267 790.7 251 818 249C845.3 247 872.7 259 886.3 265L900 271L900 227L886.3 221C872.7 215 845.3 203 818 197C790.7 191 763.3 191 736.2 187C709 183 682 175 654.8 172C627.7 169 600.3 171 573 177C545.7 183 518.3 193 491 204C463.7 215 436.3 227 409 223C381.7 219 354.3 199 327 195C299.7 191 272.3 203 245.2 200C218 197 191 179 163.8 180C136.7 181 109.3 201 82 195C54.7 189 27.3 157 13.7 141L0 125Z" fill="#5984c5"></path><path d="M0 325L13.7 358C27.3 391 54.7 457 82 470C109.3 483 136.7 443 163.8 433C191 423 218 443 245.2 449C272.3 455 299.7 447 327 457C354.3 467 381.7 495 409 493C436.3 491 463.7 459 491 457C518.3 455 545.7 483 573 484C600.3 485 627.7 459 654.8 447C682 435 709 437 736.2 435C763.3 433 790.7 427 818 435C845.3 443 872.7 465 886.3 476L900 487L900 269L886.3 263C872.7 257 845.3 245 818 247C790.7 249 763.3 265 736.2 273C709 281 682 281 654.8 282C627.7 283 600.3 285 573 290C545.7 295 518.3 303 491 305C463.7 307 436.3 303 409 298C381.7 293 354.3 287 327 281C299.7 275 272.3 269 245.2 261C218 253 191 243 163.8 251C136.7 259 109.3 285 82 282C54.7 279 27.3 247 13.7 231L0 215Z" fill="#4c72ab"></path><path d="M0 601L13.7 601C27.3 601 54.7 601 82 601C109.3 601 136.7 601 163.8 601C191 601 218 601 245.2 601C272.3 601 299.7 601 327 601C354.3 601 381.7 601 409 601C436.3 601 463.7 601 491 601C518.3 601 545.7 601 573 601C600.3 601 627.7 601 654.8 601C682 601 709 601 736.2 601C763.3 601 790.7 601 818 601C845.3 601 872.7 601 886.3 601L900 601L900 485L886.3 474C872.7 463 845.3 441 818 433C790.7 425 763.3 431 736.2 433C709 435 682 433 654.8 445C627.7 457 600.3 483 573 482C545.7 481 518.3 453 491 455C463.7 457 436.3 489 409 491C381.7 493 354.3 465 327 455C299.7 445 272.3 453 245.2 447C218 441 191 421 163.8 431C136.7 441 109.3 481 82 468C54.7 455 27.3 389 13.7 356L0 323Z" fill="#406092"></path></svg>